# xmcd
#
# Track frame offsets: 
#        150
#        21262
#        41300
#        61220
#        76940
#        103915
#        118485
#        120342
#        138137
#        151852
#        168590
#
# Disc length: 2585 seconds
#
# Revision: 6
# Processed by: cddbd v1.5.2PL0 Copyright (c) Steve Scherf et al.
# Submitted via: ExactAudioCopy v0.95b4
#
DISCID=870a170b
DTITLE=Peace Love And Pitbulls - Peace Love And Pitbulls
DYEAR=1992
DGENRE=Rock
TTITLE0=(I'm The) Radio King-Kong
TTITLE1=Do The Monkey (Hitch-Hike To Mars)
TTITLE2=Be My TV
TTITLE3=This Is Trash
TTITLE4=A. Psycho
TTITLE5=Futurehead
TTITLE6=What's Wrong
TTITLE7=Nutopia
TTITLE8=Mekanikal Urban Chant
TTITLE9=Dog Church
TTITLE10=Reverberation Nation
EXTD=YEAR: 1992
EXTT0=
EXTT1=
EXTT2=
EXTT3=
EXTT4=
EXTT5=
EXTT6=
EXTT7=
EXTT8=
EXTT9=
EXTT10=
PLAYORDER=
